<svg xmlns="http://www.w3.org/2000/svg" version="1.1" xmlns:xlink="http://www.w3.org/1999/xlink" xmlns:svgjs="http://svgjs.dev/svgjs" width="2000" height="1715" viewBox="0 0 2000 1715"><g transform="matrix(1,0,0,1,1.1983153320850306,0.6943319838056823)"><svg viewBox="0 0 288 247" data-background-color="#c0ff00" preserveAspectRatio="xMidYMid meet" height="1715" width="2000" xmlns="http://www.w3.org/2000/svg" xmlns:xlink="http://www.w3.org/1999/xlink"><g id="tight-bounds" transform="matrix(1,0,0,1,-0.17255740782024986,-0.09999999999999432)"><svg viewBox="0 0 288.3451148156405 247.2" height="247.2" width="288.3451148156405"><g><svg viewBox="0 0 395.52 339.08167323213684" height="247.2" width="288.3451148156405"><g transform="matrix(1,0,0,1,0,231.60912819181348)"><svg viewBox="0 0 395.52 107.47254504032334" height="107.47254504032334" width="395.52"><g id="textblocktransform"><svg viewBox="0 0 395.52 107.47254504032334" height="107.47254504032334" width="395.52" id="textblock"><g><svg viewBox="0 0 395.52 72.52160233066277" height="72.52160233066277" width="395.52"><g transform="matrix(1,0,0,1,0,0)"><svg width="395.52" viewBox="0.7 -38 274.58 50.35" height="72.52160233066277" data-palette-color="#183d24"><path d="M4.8-35.85L4.8-35.85 24-35.85Q26.8-35.85 26.8-33.6L26.8-33.6Q26.8-32.6 26-31.8L26-31.8Q24.75-32.5 22.7-32.5L22.7-32.5 15.75-32.5 15.75-3.1Q15.75-1.75 17-1.15L17-1.15Q16 0.45 14.45 0.45L14.45 0.45Q11.6 0.45 11.6-3.05L11.6-3.05 11.6-32.5 3.45-32.5Q0.7-32.5 0.7-34.7L0.7-34.7Q0.7-35.75 1.45-36.5L1.45-36.5Q2.8-35.85 4.8-35.85ZM36.2-22.35L36.2-22.35 36.2-20.5Q38.3-25.85 43.15-25.85L43.15-25.85Q45.5-25.85 46.8-24.65 48.1-23.45 48.1-21.88 48.1-20.3 47.3-19.48 46.5-18.65 45.65-18.65 44.8-18.65 44.1-18.85L44.1-18.85Q44.2-19.35 44.2-20.15L44.2-20.15Q44.2-22.65 41.7-22.65L41.7-22.65Q40.05-22.65 38.45-21 36.85-19.35 36.2-15.95L36.2-15.95 36.2-3.1Q36.2-1.65 37.45-1.15L37.45-1.15Q36.4 0.45 34.85 0.45L34.85 0.45Q32.05 0.45 32.05-3.05L32.05-3.05 32.05-22.25Q32.05-23.7 30.8-24.25L30.8-24.25Q31.75-25.85 33.4-25.85L33.4-25.85Q36.2-25.85 36.2-22.35ZM55.7-6.4L55.7-6.4Q55.7-2.8 59.62-2.8 63.55-2.8 66.09-6.25L66.09-6.25 66.09-12.2Q60.8-11.9 58.25-10.33 55.7-8.75 55.7-6.4ZM70.25-17.8L70.25-17.8 70.25-4.5Q70.25-1.85 72.7-1.5L72.7-1.5Q71.75 0.45 69.55 0.45L69.55 0.45Q66.4 0.45 66.09-3.6L66.09-3.6Q63.2 0.45 58.3 0.45L58.3 0.45Q55.2 0.45 53.2-1.25 51.2-2.95 51.2-5.95L51.2-5.95Q51.2-9.65 54.92-11.93 58.65-14.2 66.09-14.4L66.09-14.4 66.09-17.4Q66.09-20.5 65-21.98 63.9-23.45 61.52-23.45 59.15-23.45 57.95-22.48 56.75-21.5 56.75-20.28 56.75-19.05 57.45-18.3L57.45-18.3Q56.4-17.5 55.12-17.5 53.85-17.5 53.05-18.2 52.25-18.9 52.25-20.2L52.25-20.2Q52.25-22.55 54.95-24.2 57.65-25.85 61.6-25.85 65.55-25.85 67.9-23.73 70.25-21.6 70.25-17.8ZM97.04-21.05L97.04-21.05Q97.04-19.85 96.34-19.15 95.64-18.45 94.64-18.45 93.64-18.45 92.99-18.85L92.99-18.85Q93.14-19.4 93.14-19.95L93.14-19.95Q93.14-23 89.39-23L89.39-23Q86.34-23 83.94-20.2 81.54-17.4 81.54-12.63 81.54-7.85 83.77-5.45 85.99-3.05 89.24-3.05L89.24-3.05Q93.39-3.05 96.14-5.7L96.14-5.7Q96.79-5.15 96.79-4.25L96.79-4.25Q96.79-2.65 94.29-1.1 91.79 0.45 88.59 0.45L88.59 0.45Q83.94 0.45 80.64-2.75 77.34-5.95 77.34-11.88 77.34-17.8 81.07-21.83 84.79-25.85 90.14-25.85L90.14-25.85Q93.29-25.85 95.17-24.45 97.04-23.05 97.04-21.05ZM108.14-34.55L108.14-34.55 108.14-14.75Q113.69-17.15 116.37-20.03 119.04-22.9 119.04-25.85L119.04-25.85Q120.74-25.85 121.74-25 122.74-24.15 122.74-22.7L122.74-22.7Q122.74-20.15 119.67-17.75 116.59-15.35 111.59-13.75L111.59-13.75Q118.69-5 121.59-3.85L121.59-3.85Q122.84-3.35 124.59-3.35L124.59-3.35Q124.59-1.75 123.77-0.65 122.94 0.45 121.49 0.45L121.49 0.45Q119.19 0.45 116.79-2.02 114.39-4.5 108.14-12.9L108.14-12.9 108.14-3.1Q108.14-1.65 109.39-1.15L109.39-1.15Q108.34 0.45 106.79 0.45L106.79 0.45Q103.99 0.45 103.99-3.05L103.99-3.05 103.99-34.45Q103.99-35.9 102.74-36.45L102.74-36.45Q103.59-38 105.34-38L105.34-38Q108.14-38 108.14-34.55ZM133.06-36.5Q134.34-36.5 135.16-35.77 135.99-35.05 135.99-33.77 135.99-32.5 134.91-31.48 133.84-30.45 132.49-30.45 131.14-30.45 130.29-31.25 129.44-32.05 129.44-33.35 129.44-34.65 130.61-35.58 131.79-36.5 133.06-36.5ZM134.99-22.35L134.99-22.35 134.99-3.1Q134.99-1.65 136.24-1.15L136.24-1.15Q135.19 0.45 133.64 0.45L133.64 0.45Q130.84 0.45 130.84-3.05L130.84-3.05 130.84-22.25Q130.84-23.7 129.59-24.25L129.59-24.25Q130.54-25.85 132.19-25.85L132.19-25.85Q134.99-25.85 134.99-22.35ZM164.79-17.25L164.79-17.25 164.79-3.1Q164.79-1.7 166.09-1.15L166.09-1.15Q165.04 0.45 163.44 0.45L163.44 0.45Q160.69 0.45 160.69-3.05L160.69-3.05 160.69-16.95Q160.69-22.2 156.09-22.2L156.09-22.2Q153.59-22.2 151.34-20.2 149.09-18.2 148.24-14.85L148.24-14.85 148.24-3.1Q148.24-1.65 149.49-1.15L149.49-1.15Q148.44 0.45 146.89 0.45L146.89 0.45Q144.09 0.45 144.09-3.05L144.09-3.05 144.09-22.25Q144.09-23.7 142.84-24.25L142.84-24.25Q143.79-25.85 145.44-25.85L145.44-25.85Q148.24-25.85 148.24-22.35L148.24-22.35 148.24-19.75Q149.54-22.45 151.94-24.15 154.34-25.85 157.56-25.85 160.79-25.85 162.79-23.68 164.79-21.5 164.79-17.25ZM178.71-10.33Q180.38-8.3 182.73-8.3 185.08-8.3 186.53-10.23 187.98-12.15 187.98-15.1L187.98-15.1Q187.98-19.1 186.13-21.28 184.28-23.45 181.96-23.45 179.63-23.45 178.18-21.55 176.73-19.65 176.73-16.95L176.73-16.95Q176.73-16.45 176.78-15.9L176.78-15.9Q177.03-12.35 178.71-10.33ZM187.33 1.6L187.33 1.6 180.93 1.6Q177.38 1.6 175.18 0.38 172.98-0.85 172.98-3.68 172.98-6.5 176.38-7.9L176.38-7.9Q172.58-10.7 172.58-15.55 172.58-20.4 175.53-23.13 178.48-25.85 182.38-25.85L182.38-25.85Q185.08-25.85 187.33-24.5L187.33-24.5Q187.63-26.9 189.16-28.4 190.68-29.9 192.36-29.9 194.03-29.9 194.96-29.1 195.88-28.3 195.88-26.98 195.88-25.65 194.83-25.05L194.83-25.05Q193.73-25.9 192.48-25.9 191.23-25.9 190.36-25.13 189.48-24.35 189.23-23.1L189.23-23.1Q192.18-20.25 192.18-15.8 192.18-11.35 189.23-8.65 186.28-5.95 182.38-5.95L182.38-5.95Q180.43-5.95 178.83-6.6L178.83-6.6Q176.63-6.05 176.63-4.45L176.63-4.45Q176.63-3.25 177.76-2.75 178.88-2.25 181.38-2.25L181.38-2.25 187.13-2.25Q190.78-2.25 192.71-0.65 194.63 0.95 194.63 3.75L194.63 3.75Q194.63 7.45 190.98 9.9 187.33 12.35 182.13 12.35 176.93 12.35 173.93 10.4 170.93 8.45 170.88 5.7L170.88 5.7Q170.88 4.25 171.71 3.35 172.53 2.45 173.78 2.2L173.78 2.2Q174.08 8.85 182.88 8.85L182.88 8.85Q186.88 8.85 189.11 7.58 191.33 6.3 191.33 4.2L191.33 4.2Q191.33 1.6 187.33 1.6ZM202.13-12.85L202.13-12.85 202.13-32.75Q202.13-34.15 200.88-34.7L200.88-34.7Q201.98-36.25 203.48-36.25L203.48-36.25Q206.28-36.25 206.28-32.8L206.28-32.8 206.28-12.35Q206.28-7.8 208.46-5.48 210.63-3.15 215.33-3.15L215.33-3.15Q224.38-3.15 224.38-12.35L224.38-12.35 224.38-32.75Q224.38-34.15 223.08-34.7L223.08-34.7Q224.08-36.25 225.73-36.25L225.73-36.25Q228.48-36.25 228.48-32.8L228.48-32.8 228.48-12.85Q228.48-6.65 225.28-3.13 222.08 0.4 215.38 0.4 208.68 0.4 205.41-3.15 202.13-6.7 202.13-12.85ZM241.28-32.8L241.28-32.8 241.28-3.1Q241.28-1.7 242.48-1.15L242.48-1.15Q241.48 0.45 239.83 0.45L239.83 0.45Q237.08 0.45 237.08-3.05L237.08-3.05 237.08-32.75Q237.08-34.15 235.83-34.7L235.83-34.7Q236.73-36.25 238.43-36.25L238.43-36.25Q241.28-36.25 241.28-32.8ZM274.08-29.45L274.08-29.45Q274.08-28.05 273.3-27.23 272.53-26.4 271.55-26.4 270.58-26.4 269.38-26.8L269.38-26.8Q269.58-27.6 269.58-28.35L269.58-28.35Q269.58-30.2 267.65-31.78 265.73-33.35 262.3-33.35 258.88-33.35 256.83-31.9 254.78-30.45 254.78-28.03 254.78-25.6 256.88-23.83 258.98-22.05 262-20.75 265.03-19.45 268.05-18.1 271.08-16.75 273.18-14.68 275.28-12.6 275.28-9.95L275.28-9.95Q275.28-5.5 271.4-2.53 267.53 0.45 262.13 0.45 256.73 0.45 253.18-1.98 249.63-4.4 249.63-8.1L249.63-8.1Q249.63-9.7 250.53-10.73 251.43-11.75 252.93-11.75 254.43-11.75 255.28-10.55L255.28-10.55Q254.13-9.5 254.13-7.6 254.13-5.7 256.23-4.2 258.33-2.7 262-2.7 265.68-2.7 268.38-4.6 271.08-6.5 271.08-9.25L271.08-9.25Q271.08-11 269.55-12.45 268.03-13.9 265.75-14.85 263.48-15.8 260.83-17 258.18-18.2 255.9-19.4 253.63-20.6 252.1-22.63 250.58-24.65 250.58-27.15L250.58-27.15Q250.58-31.2 254.15-33.83 257.73-36.45 262.68-36.45 267.63-36.45 270.85-34.4 274.08-32.35 274.08-29.45Z" opacity="1" transform="matrix(1,0,0,1,0,0)" fill="#183d24" class="wordmark-text-0" data-fill-palette-color="primary" id="text-0"></path></svg></g></svg></g><g transform="matrix(1,0,0,1,75.54432,89.64221212247632)"><svg viewBox="0 0 244.43135999999998 17.830332917847024" height="17.830332917847024" width="244.43135999999998"><g transform="matrix(1,0,0,1,0,0)"><svg width="244.43135999999998" viewBox="2.25 -38.99 551.5 40.24" height="17.830332917847024" data-palette-color="#183d24"><path d="M10.4-32.59L10.4-32.59 10.4-10.3Q10.4-7.62 10.91-5.82 11.43-4.03 12.34-2.95 13.26-1.88 14.54-1.43 15.82-0.98 17.36-0.98L17.36-0.98Q18.82-0.98 20.4-1.38 21.97-1.78 23.55-2.5 25.12-3.22 26.62-4.21 28.13-5.2 29.44-6.35L29.44-6.35 29.44-28.1Q29.44-29.71 29.3-30.8 29.15-31.88 28.76-32.54 28.37-33.2 27.66-33.48 26.95-33.76 26.15-33.76 25.34-33.76 25.15-33.74L25.15-33.74 25.05-34.2Q29.03-35.4 32.69-35.4L32.69-35.4Q33.2-34.11 33.2-32.59L33.2-32.59 33.2-4.39Q33.2-3.39 33.39-2.69 33.57-1.98 34.01-1.49 34.45-1 35.19-0.7 35.94-0.39 37.06-0.2L37.06-0.2 36.84 0.39Q35.38 0.2 34.3 0.1 33.23 0 32.5 0L32.5 0Q31.81 0 30.97 0.1 30.13 0.2 29.1 0.39L29.1 0.39 28.96 0.15Q29.44-0.56 29.44-2.44L29.44-2.44 29.44-4.44Q25.42-1.56 22.16-0.28 18.9 1 16.06 1L16.06 1Q14.38 1 12.7 0.61 11.01 0.22 9.67-0.73 8.33-1.68 7.48-3.26 6.64-4.83 6.64-7.2L6.64-7.2 6.64-28.1Q6.64-29.71 6.49-30.8 6.35-31.88 5.96-32.54 5.57-33.2 4.86-33.48 4.15-33.76 3.34-33.76 2.54-33.76 2.34-33.74L2.34-33.74 2.25-34.2Q6.23-35.4 9.91-35.4L9.91-35.4Q10.4-34.01 10.4-32.59ZM45.94-2.44L45.94-18.09Q45.94-19.73 45.79-20.83 45.63-21.92 45.22-22.58 44.82-23.24 44.11-23.51 43.41-23.78 42.61-23.78 41.82-23.78 41.65-23.75L41.65-23.75 41.55-24.19Q45.53-25.39 48.95-25.39L48.95-25.39Q49.46-24.1 49.46-22.61L49.46-22.61 49.46-21.9Q50.88-22.85 52.07-23.56 53.27-24.27 54.43-24.76 55.59-25.24 56.81-25.49 58.03-25.73 59.49-25.73L59.49-25.73Q60.81-25.73 62.12-25.39 63.43-25.05 64.46-24.17 65.5-23.29 66.15-21.78 66.79-20.26 66.79-17.94L66.79-17.94 66.79-2.76Q66.79-2.17 67.08-1.78 67.36-1.39 67.81-1.12 68.26-0.85 68.85-0.67 69.43-0.49 70.07-0.29L70.07-0.29 69.85 0.29Q68.48 0 66.21 0L66.21 0Q64.82 0 62.96 0.39L62.96 0.39 62.81 0.15Q63.3-0.56 63.3-2.44L63.3-2.44 63.3-17.04Q63.3-19.09 62.91-20.4 62.52-21.7 61.85-22.45 61.18-23.19 60.29-23.49 59.4-23.78 58.4-23.78L58.4-23.78Q57.18-23.78 56.11-23.56 55.05-23.34 53.99-22.89 52.93-22.44 51.83-21.77 50.73-21.09 49.46-20.19L49.46-20.19 49.46-3.34Q49.46-2.56 49.58-2.09 49.7-1.61 50.1-1.29 50.49-0.98 51.19-0.73 51.9-0.49 53.05-0.2L53.05-0.2 52.85 0.39Q51.44 0.2 50.45 0.1 49.46 0 48.85 0L48.85 0Q47.46 0 45.6 0.39L45.6 0.39 45.46 0.15Q45.94-0.56 45.94-2.44L45.94-2.44ZM93.31-17.65L93.31-2.76Q93.31-2.34 93.49-1.99 93.67-1.64 93.93-1.4 94.18-1.17 94.67-0.95 95.16-0.73 95.53-0.61 95.89-0.49 96.55-0.29L96.55-0.29 96.36 0.29Q94.79 0 93.26 0L93.26 0Q91.33 0 89.45 0.39L89.45 0.39 89.3 0.15Q89.81-0.56 89.81-2.44L89.81-2.44 89.81-4.05Q88.59-1.78 86.02-0.39 83.44 1 80.81 1L80.81 1Q78 1 76.28-0.45 74.56-1.9 74.56-4.76L74.56-4.76Q74.56-6.62 75.32-8.07 76.09-9.52 77.38-10.53 78.66-11.55 80.67-12.33 82.69-13.11 84.82-13.6 86.96-14.09 89.81-14.5L89.81-14.5 89.81-16.75Q89.81-23.46 84.52-23.46L84.52-23.46Q82.81-23.46 80.33-22.62 77.85-21.78 76.17-20.41L76.17-20.41 75.17-21.56Q77.29-23.24 80.21-24.34 83.12-25.44 85.66-25.44L85.66-25.44Q86.79-25.44 87.8-25.23 88.81-25.02 89.85-24.48 90.89-23.93 91.63-23.08 92.38-22.24 92.84-20.84 93.31-19.43 93.31-17.65L93.31-17.65ZM81.95-0.85L81.95-0.85Q84.08-0.85 86.4-2.26 88.72-3.66 89.81-5.76L89.81-5.76 89.81-13.21Q83.56-12.3 80.89-10.44 78.22-8.57 78.22-5L78.22-5Q78.22-2.83 79.15-1.84 80.07-0.85 81.95-0.85ZM149.77-2.44L149.77-5.54 149.77-16.75Q149.77-18.87 149.32-20.19 148.87-21.51 148.15-22.24 147.43-22.97 146.54-23.23 145.64-23.49 144.77-23.49L144.77-23.49Q143.06-23.49 141.24-22.8 139.42-22.12 137.39-20.65L137.39-20.65Q137.78-19.34 137.78-17.65L137.78-17.65 137.78-2.76Q137.78-2.15 138.06-1.76 138.34-1.37 138.8-1.1 139.25-0.83 139.83-0.65 140.42-0.46 141.03-0.29L141.03-0.29 140.83 0.29Q139.39 0 137.17 0L137.17 0Q135.78 0 133.93 0.39L133.93 0.39 133.78 0.15Q134.29-0.54 134.29-2.44L134.29-2.44 134.29-16.75Q134.29-18.85 133.8-20.17 133.32-21.48 132.53-22.23 131.75-22.97 130.78-23.24 129.8-23.51 128.85-23.51L128.85-23.51Q127.75-23.51 126.8-23.28 125.84-23.05 124.93-22.61 124.01-22.17 123.04-21.5 122.06-20.83 120.94-19.95L120.94-19.95 120.94-3.34Q120.94-2.56 121.06-2.09 121.18-1.61 121.57-1.29 121.96-0.98 122.67-0.73 123.38-0.49 124.53-0.2L124.53-0.2 124.33 0.39Q122.91 0.2 121.93 0.1 120.94 0 120.33 0L120.33 0Q118.94 0 117.08 0.39L117.08 0.39 116.93 0.15Q117.42-0.56 117.42-2.44L117.42-2.44 117.42-18.09Q117.42-19.73 117.26-20.83 117.1-21.92 116.7-22.58 116.3-23.24 115.59-23.51 114.88-23.78 113.78-23.78L113.78-23.78Q113.64-23.78 113.47-23.78 113.3-23.78 113.12-23.75L113.12-23.75 113.03-24.19Q117.01-25.39 120.42-25.39L120.42-25.39Q120.94-24.1 120.94-22.61L120.94-22.61 120.94-21.61Q122.26-22.61 123.34-23.33 124.43-24.05 125.47-24.51 126.5-24.98 127.58-25.2 128.65-25.42 129.97-25.42L129.97-25.42Q130.92-25.42 131.91-25.26 132.9-25.1 133.82-24.69 134.73-24.29 135.51-23.63 136.29-22.97 136.83-21.95L136.83-21.95Q138.03-22.83 139.13-23.49 140.22-24.15 141.3-24.58 142.37-25.02 143.47-25.23 144.57-25.44 145.79-25.44L145.79-25.44Q147.13-25.44 148.46-25.09 149.79-24.73 150.87-23.85 151.94-22.97 152.61-21.47 153.29-19.97 153.29-17.65L153.29-17.65 153.29-2.76Q153.29-2.15 153.57-1.76 153.85-1.37 154.3-1.1 154.75-0.83 155.34-0.65 155.92-0.46 156.53-0.29L156.53-0.29 156.34 0.29Q154.9 0 152.68 0L152.68 0Q151.28 0 149.43 0.39L149.43 0.39 149.28 0.15Q149.77-0.56 149.77-2.44L149.77-2.44ZM173.43-25.39L173.43-25.39Q179.04-25.39 182.24-21.95 185.44-18.51 185.44-12.35L185.44-12.35Q185.44-8.79 183.8-5.71 182.17-2.64 179.36-0.82 176.55 1 173.28 1L173.28 1Q167.64 1 164.45-2.4 161.27-5.81 161.27-12.06L161.27-12.06Q161.27-15.77 162.9-18.84 164.54-21.9 167.33-23.65 170.13-25.39 173.43-25.39ZM172.94-23.71L172.94-23.71Q171.01-23.71 169.59-23.14 168.18-22.58 167.32-21.63 166.47-20.68 165.95-19.21 165.44-17.75 165.26-16.21 165.08-14.67 165.08-12.65L165.08-12.65Q165.08-9.42 165.84-7.02 166.61-4.61 167.91-3.28 169.2-1.95 170.67-1.33 172.13-0.71 173.77-0.71L173.77-0.71Q175.67-0.71 177.1-1.31 178.53-1.9 179.38-2.87 180.24-3.83 180.75-5.31 181.26-6.79 181.45-8.3 181.63-9.81 181.63-11.74L181.63-11.74Q181.63-14.45 181.12-16.58 180.6-18.7 179.76-20.02 178.92-21.34 177.76-22.19 176.6-23.05 175.43-23.38 174.26-23.71 172.94-23.71ZM212.68-24.66L201.57 1.25 199.86 0.76 192.03-19.8Q191.71-20.73 191.37-21.39 191.03-22.05 190.46-22.44 189.9-22.83 189.01-22.92 188.12-23.02 186.73-22.85L186.73-22.85 186.48-23.34Q190.59-25.39 193.83-25.39L193.83-25.39 200.28-8.15Q201.11-5.35 201.43-3.66L201.43-3.66 201.82-3.66Q201.91-3.98 202.18-4.87 202.45-5.76 202.67-6.38 202.89-7.01 203.13-7.59L203.13-7.59 209.53-22.34Q209.99-23.46 208.16-23.78L208.16-23.78Q207.16-23.93 205.62-23.8L205.62-23.8 205.48-24.39Q208.58-25.05 212.36-25.15L212.36-25.15 212.68-24.66ZM219.42-2.44L219.42-18.09Q219.42-21.56 218.6-22.74 217.78-23.93 215.12-23.75L215.12-23.75 215.02-24.19Q219.05-25.39 222.42-25.39L222.42-25.39Q222.93-24.12 222.93-22.61L222.93-22.61 222.93-4.39Q222.93-2.47 223.84-1.54 224.74-0.61 227.03-0.2L227.03-0.2 226.84 0.39Q224.03 0 222.5 0 220.98 0 219.07 0.39L219.07 0.39 218.93 0.15Q219.42-0.56 219.42-2.44L219.42-2.44ZM216.93-34.45L216.93-34.45Q219.25-35.79 222.17-36.69L222.17-36.69Q222.17-34.67 222.83-32.69L222.83-32.69 222.52-32.25Q220.2-32.1 217.68-30.96L217.68-30.96Q217.07-32.64 216.93-34.45ZM237.43-36.21L237.43-4.39Q237.43-2.47 238.33-1.54 239.24-0.61 241.53-0.2L241.53-0.2 241.34 0.39Q238.53 0 237 0 235.48 0 233.57 0.39L233.57 0.39 233.43 0.15Q233.92-0.56 233.92-2.44L233.92-2.44 233.92-31.69Q233.92-35.16 233.1-36.34 232.28-37.52 229.62-37.35L229.62-37.35 229.52-37.79Q233.55-38.99 236.92-38.99L236.92-38.99Q237.43-37.72 237.43-36.21L237.43-36.21ZM248.9-2.44L248.9-18.09Q248.9-21.56 248.09-22.74 247.27-23.93 244.61-23.75L244.61-23.75 244.51-24.19Q248.54-25.39 251.91-25.39L251.91-25.39Q252.42-24.12 252.42-22.61L252.42-22.61 252.42-4.39Q252.42-2.47 253.32-1.54 254.23-0.61 256.52-0.2L256.52-0.2 256.33 0.39Q253.52 0 251.99 0 250.47 0 248.56 0.39L248.56 0.39 248.42 0.15Q248.9-0.56 248.9-2.44L248.9-2.44ZM246.41-34.45L246.41-34.45Q248.73-35.79 251.66-36.69L251.66-36.69Q251.66-34.67 252.32-32.69L252.32-32.69 252-32.25Q249.68-32.1 247.17-30.96L247.17-30.96Q246.56-32.64 246.41-34.45ZM278.42-25L278.42-31.69Q278.42-33.35 278.27-34.33 278.12-35.3 277.67-36.04 277.22-36.77 276.37-37.06 275.51-37.35 274.12-37.35L274.12-37.35 274.02-37.79Q278.05-38.99 281.42-38.99L281.42-38.99Q281.91-37.7 281.91-36.21L281.91-36.21 281.91-4.39Q281.91-2.47 282.81-1.54 283.72-0.61 286.01-0.2L286.01-0.2 285.81 0.39Q283.01 0 281.32 0L281.32 0Q280 0 278.05 0.39L278.05 0.39 277.9 0.15Q278.42-0.56 278.42-2.44L278.42-2.44 278.42-2.66Q274.83 1 270.92 1L270.92 1Q268.85 1 266.93 0.12 265.01-0.76 263.52-2.31 262.04-3.86 261.14-6.19 260.25-8.52 260.25-11.25L260.25-11.25Q260.25-17.8 263.71-21.59 267.16-25.39 273.71-25.39L273.71-25.39Q275.76-25.39 278.42-25L278.42-25ZM278.42-4.44L278.42-22.29Q275.63-23.56 271.92-23.56L271.92-23.56Q270.02-23.56 268.63-23.03 267.24-22.51 266.37-21.61 265.5-20.7 264.99-19.27 264.48-17.85 264.29-16.26 264.11-14.67 264.11-12.55L264.11-12.55Q264.11-6.96 266.19-4.03 268.26-1.1 271.56-1.1L271.56-1.1Q275.15-1.1 278.42-4.44L278.42-4.44ZM308.25-17.65L308.25-2.76Q308.25-2.34 308.43-1.99 308.62-1.64 308.87-1.4 309.13-1.17 309.62-0.95 310.1-0.73 310.47-0.61 310.84-0.49 311.5-0.29L311.5-0.29 311.3 0.29Q309.74 0 308.2 0L308.2 0Q306.27 0 304.39 0.39L304.39 0.39 304.24 0.15Q304.76-0.56 304.76-2.44L304.76-2.44 304.76-4.05Q303.54-1.78 300.96-0.39 298.39 1 295.75 1L295.75 1Q292.94 1 291.22-0.45 289.5-1.9 289.5-4.76L289.5-4.76Q289.5-6.62 290.27-8.07 291.04-9.52 292.32-10.53 293.6-11.55 295.61-12.33 297.63-13.11 299.76-13.6 301.9-14.09 304.76-14.5L304.76-14.5 304.76-16.75Q304.76-23.46 299.46-23.46L299.46-23.46Q297.75-23.46 295.27-22.62 292.79-21.78 291.11-20.41L291.11-20.41 290.11-21.56Q292.23-23.24 295.15-24.34 298.07-25.44 300.61-25.44L300.61-25.44Q301.73-25.44 302.74-25.23 303.76-25.02 304.79-24.48 305.83-23.93 306.58-23.08 307.32-22.24 307.79-20.84 308.25-19.43 308.25-17.65L308.25-17.65ZM296.9-0.85L296.9-0.85Q299.02-0.85 301.34-2.26 303.66-3.66 304.76-5.76L304.76-5.76 304.76-13.21Q298.51-12.3 295.83-10.44 293.16-8.57 293.16-5L293.16-5Q293.16-2.83 294.09-1.84 295.02-0.85 296.9-0.85ZM334.39-25L334.39-31.69Q334.39-33.35 334.25-34.33 334.1-35.3 333.65-36.04 333.2-36.77 332.34-37.06 331.49-37.35 330.1-37.35L330.1-37.35 330-37.79Q334.03-38.99 337.4-38.99L337.4-38.99Q337.89-37.7 337.89-36.21L337.89-36.21 337.89-4.39Q337.89-2.47 338.79-1.54 339.69-0.61 341.99-0.2L341.99-0.2 341.79 0.39Q338.98 0 337.3 0L337.3 0Q335.98 0 334.03 0.39L334.03 0.39 333.88 0.15Q334.39-0.56 334.39-2.44L334.39-2.44 334.39-2.66Q330.8 1 326.9 1L326.9 1Q324.82 1 322.91 0.12 320.99-0.76 319.5-2.31 318.01-3.86 317.12-6.19 316.23-8.52 316.23-11.25L316.23-11.25Q316.23-17.8 319.68-21.59 323.14-25.39 329.68-25.39L329.68-25.39Q331.73-25.39 334.39-25L334.39-25ZM334.39-4.44L334.39-22.29Q331.61-23.56 327.9-23.56L327.9-23.56Q326-23.56 324.6-23.03 323.21-22.51 322.35-21.61 321.48-20.7 320.97-19.27 320.45-17.85 320.27-16.26 320.09-14.67 320.09-12.55L320.09-12.55Q320.09-6.96 322.16-4.03 324.24-1.1 327.53-1.1L327.53-1.1Q331.12-1.1 334.39-4.44L334.39-4.44ZM358.71-11.89L358.71-11.89Q358.71-14.48 359.56-16.91 360.41-19.34 362-21.23 363.59-23.12 365.85-24.26 368.1-25.39 370.91-25.39L370.91-25.39Q372.67-25.39 374.23-24.79 375.8-24.19 376.95-22.94 378.11-21.68 378.79-19.71 379.46-17.75 379.46-15.04L379.46-15.04 378.51-14.16 362.56-14.16Q362.51-13.75 362.51-13.35 362.51-12.96 362.51-12.57L362.51-12.57Q362.51-9.91 363.14-7.74 363.76-5.57 364.82-4.02 365.88-2.47 367.32-1.61 368.76-0.76 370.38-0.76L370.38-0.76Q371.4-0.76 372.46-0.92 373.52-1.07 374.54-1.42 375.55-1.76 376.5-2.29 377.46-2.83 378.26-3.59L378.26-3.59 379.26-2.54Q377.33-0.63 375.06 0.18 372.79 1 369.81 1L369.81 1Q367.47 1 365.43 0.1 363.39-0.81 361.9-2.49 360.41-4.17 359.56-6.56 358.71-8.94 358.71-11.89ZM370.38-23.71L370.38-23.71Q366.59-23.71 364.83-21.74 363.08-19.78 362.71-16.09L362.71-16.09 376.31-16.09Q376.11-20.09 374.51-21.9 372.91-23.71 370.38-23.71ZM393.61-35.55L393.61-35.55Q392.32-34.69 391.76-31.93 391.2-29.17 391.08-24.44L391.08-24.44 399.18-24.44 399.18-23.61Q398.74-23.41 398.13-23.23 397.52-23.05 396.84-22.91 396.15-22.78 395.46-22.69 394.76-22.61 394.18-22.61L394.18-22.61 391.08-22.61 391.08-4.39Q391.08-3.42 391.28-2.71 391.49-2 391.98-1.51 392.47-1.03 393.25-0.71 394.03-0.39 395.18-0.2L395.18-0.2 394.96 0.39Q393.57 0.2 392.44 0.1 391.32 0 390.47 0L390.47 0Q389.07 0 387.22 0.39L387.22 0.39 387.07 0.15Q387.56-0.56 387.56-2.44L387.56-2.44 387.56-22.46 383.41-22.19 383.41-23.56Q385.9-24.34 387.56-24.34L387.56-24.34 387.56-25.15Q387.56-27.27 387.76-29.06 387.95-30.86 388.51-32.34 389.07-33.81 390.06-34.95 391.05-36.08 392.66-36.89L392.66-36.89Q393.93-37.52 395.29-37.79 396.64-38.06 398.28-38.06L398.28-38.06Q398.91-38.06 399.58-38.02 400.26-37.99 401.01-37.94L401.01-37.94Q401.04-37.67 401.04-37.41 401.04-37.16 401.04-36.66 401.04-36.16 400.98-35.4 400.91-34.64 400.82-33.94 400.72-33.23 400.59-32.59 400.45-31.96 400.28-31.49L400.28-31.49 399.47-31.64Q399.47-32.1 399.39-32.8 399.3-33.5 399.18-34.18 399.06-34.86 398.91-35.41 398.77-35.96 398.62-36.16L398.62-36.16Q397.55-36.43 396.67-36.43L396.67-36.43Q394.96-36.43 393.61-35.55ZM406.21-2.44L406.21-18.09Q406.21-21.56 405.39-22.74 404.57-23.93 401.91-23.75L401.91-23.75 401.82-24.19Q405.84-25.39 409.21-25.39L409.21-25.39Q409.73-24.12 409.73-22.61L409.73-22.61 409.73-4.39Q409.73-2.47 410.63-1.54 411.53-0.61 413.83-0.2L413.83-0.2 413.63 0.39Q410.82 0 409.3 0 407.77 0 405.87 0.39L405.87 0.39 405.72 0.15Q406.21-0.56 406.21-2.44L406.21-2.44ZM403.72-34.45L403.72-34.45Q406.04-35.79 408.97-36.69L408.97-36.69Q408.97-34.67 409.63-32.69L409.63-32.69 409.31-32.25Q406.99-32.1 404.48-30.96L404.48-30.96Q403.87-32.64 403.72-34.45ZM429.11 1L429.11 1Q426.54 1 424.35-0.02 422.15-1.05 420.69-2.77 419.22-4.49 418.39-6.7 417.56-8.91 417.56-11.3L417.56-11.3Q417.56-14.72 418.56-17.43 419.56-20.14 421.34-21.86 423.13-23.58 425.51-24.49 427.89-25.39 430.72-25.39L430.72-25.39Q433.84-25.39 437.16-24.24L437.16-24.24 435.58-18.26 434.67-18.51Q434.94-21.07 434.53-22.9L434.53-22.9Q431.79-23.71 429.57-23.71L429.57-23.71Q425.27-23.71 423.32-20.91 421.37-18.12 421.37-12.65L421.37-12.65Q421.37-7.54 423.75-4.15 426.13-0.76 429.77-0.76L429.77-0.76Q434.28-0.76 437.12-3.59L437.12-3.59 438.12-2.54Q436.29-0.63 434.12 0.18 431.96 1 429.11 1ZM444.85-2.44L444.85-18.09Q444.85-21.56 444.03-22.74 443.22-23.93 440.56-23.75L440.56-23.75 440.46-24.19Q444.49-25.39 447.86-25.39L447.86-25.39Q448.37-24.12 448.37-22.61L448.37-22.61 448.37-4.39Q448.37-2.47 449.27-1.54 450.17-0.61 452.47-0.2L452.47-0.2 452.27 0.39Q449.47 0 447.94 0 446.41 0 444.51 0.39L444.51 0.39 444.36 0.15Q444.85-0.56 444.85-2.44L444.85-2.44ZM442.36-34.45L442.36-34.45Q444.68-35.79 447.61-36.69L447.61-36.69Q447.61-34.67 448.27-32.69L448.27-32.69 447.95-32.25Q445.63-32.1 443.12-30.96L443.12-30.96Q442.51-32.64 442.36-34.45ZM456.2-11.89L456.2-11.89Q456.2-14.48 457.06-16.91 457.91-19.34 459.5-21.23 461.09-23.12 463.34-24.26 465.6-25.39 468.41-25.39L468.41-25.39Q470.17-25.39 471.73-24.79 473.29-24.19 474.45-22.94 475.61-21.68 476.28-19.71 476.95-17.75 476.95-15.04L476.95-15.04 476-14.16 460.06-14.16Q460.01-13.75 460.01-13.35 460.01-12.96 460.01-12.57L460.01-12.57Q460.01-9.91 460.63-7.74 461.26-5.57 462.32-4.02 463.38-2.47 464.82-1.61 466.26-0.76 467.87-0.76L467.87-0.76Q468.9-0.76 469.96-0.92 471.02-1.07 472.04-1.42 473.05-1.76 474-2.29 474.95-2.83 475.76-3.59L475.76-3.59 476.76-2.54Q474.83-0.63 472.56 0.18 470.29 1 467.31 1L467.31 1Q464.97 1 462.93 0.1 460.89-0.81 459.4-2.49 457.91-4.17 457.06-6.56 456.2-8.94 456.2-11.89ZM467.87-23.71L467.87-23.71Q464.09-23.71 462.33-21.74 460.57-19.78 460.21-16.09L460.21-16.09 473.81-16.09Q473.61-20.09 472.01-21.9 470.41-23.71 467.87-23.71ZM485.11-2.44L485.11-18.09Q485.11-19.73 484.95-20.83 484.79-21.92 484.39-22.58 483.98-23.24 483.28-23.51 482.57-23.78 481.77-23.78 480.98-23.78 480.81-23.75L480.81-23.75 480.71-24.19Q484.69-25.39 488.11-25.39L488.11-25.39Q488.62-24.1 488.62-22.61L488.62-22.61 488.62-21.9Q490.04-22.85 491.23-23.56 492.43-24.27 493.59-24.76 494.75-25.24 495.97-25.49 497.19-25.73 498.66-25.73L498.66-25.73Q499.97-25.73 501.28-25.39 502.59-25.05 503.62-24.17 504.66-23.29 505.31-21.78 505.96-20.26 505.96-17.94L505.96-17.94 505.96-2.76Q505.96-2.17 506.24-1.78 506.52-1.39 506.97-1.12 507.42-0.85 508.01-0.67 508.59-0.49 509.23-0.29L509.23-0.29 509.01 0.29Q507.64 0 505.37 0L505.37 0Q503.98 0 502.12 0.39L502.12 0.39 501.98 0.15Q502.46-0.56 502.46-2.44L502.46-2.44 502.46-17.04Q502.46-19.09 502.07-20.4 501.68-21.7 501.01-22.45 500.34-23.19 499.45-23.49 498.56-23.78 497.56-23.78L497.56-23.78Q496.34-23.78 495.27-23.56 494.21-23.34 493.15-22.89 492.09-22.44 490.99-21.77 489.89-21.09 488.62-20.19L488.62-20.19 488.62-3.34Q488.62-2.56 488.74-2.09 488.87-1.61 489.26-1.29 489.65-0.98 490.36-0.73 491.06-0.49 492.21-0.2L492.21-0.2 492.02 0.39Q490.6 0.2 489.61 0.1 488.62 0 488.01 0L488.01 0Q486.62 0 484.76 0.39L484.76 0.39 484.62 0.15Q485.11-0.56 485.11-2.44L485.11-2.44ZM520.87-22.61L520.87-6.74Q520.87-3.42 521.6-2.16 522.34-0.9 523.97-0.9L523.97-0.9Q525.75-0.9 528.32-2.25L528.32-2.25 529.07-1.2Q525.05 1 522.48 1L522.48 1Q521.11 1 520.26 0.76 519.41 0.51 518.7-0.2 517.99-0.9 517.68-2.28 517.38-3.66 517.38-5.86L517.38-5.86 517.38-22.41 513.72-22.19 513.72-23.75Q515.65-24.17 517.38-24.29L517.38-24.29 517.38-27.76Q519.45-28.93 520.77-31.1L520.77-31.1 521.53-30.81Q521.11-29.83 520.99-28.6 520.87-27.37 520.87-24.44L520.87-24.44 529.27-24.44 529.27-23.58Q528.24-23.17 527.19-22.89 526.14-22.61 525.02-22.61L525.02-22.61 520.87-22.61ZM533-11.89L533-11.89Q533-14.48 533.86-16.91 534.71-19.34 536.3-21.23 537.88-23.12 540.14-24.26 542.4-25.39 545.21-25.39L545.21-25.39Q546.97-25.39 548.53-24.79 550.09-24.19 551.25-22.94 552.41-21.68 553.08-19.71 553.75-17.75 553.75-15.04L553.75-15.04 552.8-14.16 536.86-14.16Q536.81-13.75 536.81-13.35 536.81-12.96 536.81-12.57L536.81-12.57Q536.81-9.91 537.43-7.74 538.06-5.57 539.12-4.02 540.18-2.47 541.62-1.61 543.06-0.76 544.67-0.76L544.67-0.76Q545.7-0.76 546.76-0.92 547.82-1.07 548.83-1.42 549.85-1.76 550.8-2.29 551.75-2.83 552.56-3.59L552.56-3.59 553.56-2.54Q551.63-0.63 549.36 0.18 547.09 1 544.11 1L544.11 1Q541.77 1 539.73 0.1 537.69-0.81 536.2-2.49 534.71-4.17 533.86-6.56 533-8.94 533-11.89ZM544.67-23.71L544.67-23.71Q540.89-23.71 539.13-21.74 537.37-19.78 537.01-16.09L537.01-16.09 550.6-16.09Q550.41-20.09 548.81-21.9 547.21-23.71 544.67-23.71Z" opacity="1" transform="matrix(1,0,0,1,0,0)" fill="#183d24" class="slogan-text-1" data-fill-palette-color="secondary" id="text-1"></path></svg></g></svg></g></svg></g></svg></g><g transform="matrix(1,0,0,1,90.51574080000002,0)"><svg viewBox="0 0 214.48851839999995 214.48851839999995" height="214.48851839999995" width="214.48851839999995"><g><svg></svg></g><g id="icon-0"><svg viewBox="0 0 214.48851839999995 214.48851839999995" height="214.48851839999995" width="214.48851839999995"><g><rect width="195.02567135999996" height="195.02567135999996" x="9.731423519999993" y="9.731423519999993" fill="#183d24" data-fill-palette-color="accent"></rect><rect width="195.02567135999996" height="195.02567135999996" x="-3.552713678800501e-15" y="19.46284703999999" fill="#183d24" opacity="0.5" data-fill-palette-color="accent"></rect></g><g transform="matrix(1,0,0,1,27.80406719999999,27.80406719999999)"><svg viewBox="0 0 158.88038399999996 158.88038399999996" height="158.88038399999996" width="158.88038399999996"><g><svg xmlns="http://www.w3.org/2000/svg" xmlns:xlink="http://www.w3.org/1999/xlink" version="1.1" x="0" y="0" viewBox="3 3 58 58" style="enable-background:new 0 0 64 64;" xml:space="preserve" height="158.88038399999996" width="158.88038399999996" class="icon-cg-0" data-fill-palette-color="quaternary" id="cg-0"><g fill="#c0ff00" data-fill-palette-color="quaternary"><path d="M54.946 19h-5.974c-0.064 2.09-0.319 4.123-0.758 6h5.028C54.219 23.153 54.805 21.114 54.946 19z" fill="#c0ff00" data-fill-palette-color="quaternary"></path><path d="M13.36 40.632c0.265 0.455 1.016 0.455 1.28 0l5.424-9.297C20.676 30.284 21 29.087 21 27.872 21 24.083 17.917 21 14.128 21h-0.256C10.083 21 7 24.083 7 27.872c0 1.215 0.324 2.412 0.936 3.462L13.36 40.632zM14 23c2.757 0 5 2.243 5 5s-2.243 5-5 5-5-2.243-5-5S11.243 23 14 23z" fill="#c0ff00" data-fill-palette-color="quaternary"></path><path d="M51.991 27h-4.338c-0.226 0.699-0.475 1.37-0.753 2h3.277C50.843 28.383 51.453 27.717 51.991 27z" fill="#c0ff00" data-fill-palette-color="quaternary"></path><path d="M46.159 11H33.841c-0.462 1.821-0.746 3.858-0.816 6h13.951C46.906 14.858 46.621 12.821 46.159 11z" fill="#c0ff00" data-fill-palette-color="quaternary"></path><circle cx="14" cy="28" r="3.0" fill="#c0ff00" data-fill-palette-color="quaternary"></circle><path d="M45.546 9C44.254 5.387 42.232 3 40 3s-4.254 2.387-5.546 6H45.546z" fill="#c0ff00" data-fill-palette-color="quaternary"></path><path d="M25.054 19c0.142 2.114 0.728 4.153 1.704 6h5.028c-0.439-1.877-0.694-3.91-0.758-6H25.054z" fill="#c0ff00" data-fill-palette-color="quaternary"></path><path d="M34.902 3.911C32.143 4.913 29.765 6.696 28.029 9h4.307C32.994 6.977 33.864 5.238 34.902 3.911z" fill="#c0ff00" data-fill-palette-color="quaternary"></path><path d="M51.971 9c-1.736-2.304-4.115-4.087-6.873-5.089C46.136 5.238 47.006 6.977 47.664 9H51.971z" fill="#c0ff00" data-fill-palette-color="quaternary"></path><path d="M31.778 11h-5.034c-0.961 1.812-1.55 3.845-1.693 6h5.975C31.089 14.861 31.348 12.84 31.778 11z" fill="#c0ff00" data-fill-palette-color="quaternary"></path><circle cx="50" cy="44" r="3.0" fill="#c0ff00" data-fill-palette-color="quaternary"></circle><path d="M33.101 29c-0.278-0.63-0.527-1.301-0.753-2h-4.338c0.538 0.717 1.148 1.383 1.815 2H33.101z" fill="#c0ff00" data-fill-palette-color="quaternary"></path><path d="M22.414 31c-0.174 0.461-0.373 0.914-0.622 1.342l-5.424 9.297C15.878 42.479 14.971 43 14 43s-1.878-0.521-2.368-1.36l-5.424-9.297C5.959 31.914 5.76 31.461 5.586 31H3v30h58V31H22.414zM7 59H5v-2h2V59zM7 55H5v-2h2V55zM7 51H5v-2h2V51zM15 55h-2v-2h2V55zM15 51h-2v-2h2V51zM15 47h-2v-2h2V47zM19 55h-2v-2h2V55zM23 55h-2v-2h2V55zM27 55h-2v-2h2V55zM31 59h-2v-2h2V59zM31 55h-2v-2h2V55zM35 59h-2v-2h2V59zM39 59h-2v-2h2V59zM43 59h-2v-2h2V59zM57.792 48.342l-5.424 9.298C51.878 58.479 50.971 59 50 59s-1.878-0.521-2.368-1.36l-5.424-9.298c-0.791-1.354-1.208-2.9-1.208-4.47C41 38.98 44.98 35 49.872 35h0.256C55.02 35 59 38.98 59 43.872 59 45.441 58.582 46.987 57.792 48.342z" fill="#c0ff00" data-fill-palette-color="quaternary"></path><path d="M50.128 37h-0.256C46.083 37 43 40.083 43 43.872c0 1.216 0.324 2.413 0.936 3.462l5.424 9.298c0.265 0.455 1.016 0.455 1.28 0l5.424-9.298C56.676 46.285 57 45.088 57 43.872 57 40.083 53.917 37 50.128 37zM50 49c-2.757 0-5-2.243-5-5s2.243-5 5-5 5 2.243 5 5S52.757 49 50 49z" fill="#c0ff00" data-fill-palette-color="quaternary"></path><path d="M46.973 19H33.026c0.068 2.114 0.35 4.15 0.821 6h12.305C46.623 23.15 46.905 21.114 46.973 19z" fill="#c0ff00" data-fill-palette-color="quaternary"></path><path d="M48.974 17h5.975c-0.143-2.155-0.732-4.188-1.693-6h-5.034C48.652 12.84 48.911 14.861 48.974 17z" fill="#c0ff00" data-fill-palette-color="quaternary"></path><path d="M44.679 29c0.32-0.621 0.615-1.284 0.873-2H34.448c0.258 0.716 0.553 1.379 0.873 2H44.679z" fill="#c0ff00" data-fill-palette-color="quaternary"></path></g></svg></g></svg></g></svg></g></svg></g><g></g></svg></g><defs></defs></svg><rect width="288.3451148156405" height="247.2" fill="none" stroke="none" visibility="hidden"></rect></g></svg></g></svg>